<mxfile host="app.diagrams.net" modified="2023-03-11T17:04:16.364Z" agent="5.0 (Windows NT 10.0; Win64; x64) AppleWebKit/537.36 (KHTML, like Gecko) Chrome/110.0.0.0 Safari/537.36" etag="HPKjlYnXkCRftfe0XTdf" version="21.0.6" type="github">
  <diagram name="第 1 页" id="br-GKpQ_sZ6VN7s1dgz4">
    <mxGraphModel dx="794" dy="515" grid="1" gridSize="10" guides="1" tooltips="1" connect="1" arrows="1" fold="1" page="1" pageScale="1" pageWidth="827" pageHeight="1169" math="0" shadow="0">
      <root>
        <mxCell id="0" />
        <mxCell id="1" parent="0" />
        <mxCell id="2lm1UO-0tJKi5weSdFDt-25" value="" style="rounded=0;whiteSpace=wrap;html=1;" vertex="1" parent="1">
          <mxGeometry x="350" y="170" width="90" height="240" as="geometry" />
        </mxCell>
        <mxCell id="2lm1UO-0tJKi5weSdFDt-12" style="edgeStyle=orthogonalEdgeStyle;rounded=0;orthogonalLoop=1;jettySize=auto;html=1;exitX=1;exitY=0.5;exitDx=0;exitDy=0;entryX=0;entryY=0.5;entryDx=0;entryDy=0;" edge="1" parent="1" source="2lm1UO-0tJKi5weSdFDt-11" target="2lm1UO-0tJKi5weSdFDt-4">
          <mxGeometry relative="1" as="geometry" />
        </mxCell>
        <mxCell id="2lm1UO-0tJKi5weSdFDt-11" value="" style="rounded=0;whiteSpace=wrap;html=1;" vertex="1" parent="1">
          <mxGeometry x="165" y="170" width="95" height="160" as="geometry" />
        </mxCell>
        <mxCell id="pksf3MI67b47W_wXIJH8-1" value="分库表1" style="rounded=0;whiteSpace=wrap;html=1;" parent="1" vertex="1">
          <mxGeometry x="180" y="210" width="70" height="30" as="geometry" />
        </mxCell>
        <mxCell id="2lm1UO-0tJKi5weSdFDt-4" value="多表合并" style="rounded=0;whiteSpace=wrap;html=1;" vertex="1" parent="1">
          <mxGeometry x="360" y="235" width="70" height="30" as="geometry" />
        </mxCell>
        <mxCell id="2lm1UO-0tJKi5weSdFDt-6" value="分库表2" style="rounded=0;whiteSpace=wrap;html=1;" vertex="1" parent="1">
          <mxGeometry x="180" y="250" width="70" height="30" as="geometry" />
        </mxCell>
        <mxCell id="2lm1UO-0tJKi5weSdFDt-9" value="分库表n" style="rounded=0;whiteSpace=wrap;html=1;" vertex="1" parent="1">
          <mxGeometry x="180" y="290" width="70" height="30" as="geometry" />
        </mxCell>
        <mxCell id="2lm1UO-0tJKi5weSdFDt-13" value="pyspark脚本" style="text;html=1;strokeColor=none;fillColor=none;align=center;verticalAlign=middle;whiteSpace=wrap;rounded=0;" vertex="1" parent="1">
          <mxGeometry x="280" y="220" width="70" height="30" as="geometry" />
        </mxCell>
        <mxCell id="2lm1UO-0tJKi5weSdFDt-16" style="edgeStyle=orthogonalEdgeStyle;rounded=0;orthogonalLoop=1;jettySize=auto;html=1;exitX=1;exitY=0.5;exitDx=0;exitDy=0;entryX=0;entryY=0.5;entryDx=0;entryDy=0;" edge="1" parent="1" source="2lm1UO-0tJKi5weSdFDt-14" target="2lm1UO-0tJKi5weSdFDt-15">
          <mxGeometry relative="1" as="geometry" />
        </mxCell>
        <mxCell id="2lm1UO-0tJKi5weSdFDt-14" value="手动维护数据" style="rounded=0;whiteSpace=wrap;html=1;" vertex="1" parent="1">
          <mxGeometry x="165" y="350" width="95" height="30" as="geometry" />
        </mxCell>
        <mxCell id="2lm1UO-0tJKi5weSdFDt-15" value="表加工" style="rounded=0;whiteSpace=wrap;html=1;" vertex="1" parent="1">
          <mxGeometry x="360" y="350" width="70" height="30" as="geometry" />
        </mxCell>
        <mxCell id="2lm1UO-0tJKi5weSdFDt-17" value="资源文件" style="text;html=1;strokeColor=none;fillColor=none;align=center;verticalAlign=middle;whiteSpace=wrap;rounded=0;" vertex="1" parent="1">
          <mxGeometry x="280" y="340" width="70" height="30" as="geometry" />
        </mxCell>
        <mxCell id="2lm1UO-0tJKi5weSdFDt-18" value="分库分表" style="text;html=1;strokeColor=none;fillColor=none;align=center;verticalAlign=middle;whiteSpace=wrap;rounded=0;" vertex="1" parent="1">
          <mxGeometry x="182.5" y="170" width="60" height="30" as="geometry" />
        </mxCell>
        <mxCell id="2lm1UO-0tJKi5weSdFDt-19" value="网关服务" style="rounded=0;whiteSpace=wrap;html=1;" vertex="1" parent="1">
          <mxGeometry x="590" y="170" width="120" height="40" as="geometry" />
        </mxCell>
        <mxCell id="2lm1UO-0tJKi5weSdFDt-20" value="doris" style="rounded=0;whiteSpace=wrap;html=1;" vertex="1" parent="1">
          <mxGeometry x="460" y="370" width="120" height="40" as="geometry" />
        </mxCell>
        <mxCell id="2lm1UO-0tJKi5weSdFDt-23" value="外部存储" style="rounded=0;whiteSpace=wrap;html=1;" vertex="1" parent="1">
          <mxGeometry x="460" y="170" width="120" height="40" as="geometry" />
        </mxCell>
        <mxCell id="2lm1UO-0tJKi5weSdFDt-24" value="BI报表" style="rounded=0;whiteSpace=wrap;html=1;" vertex="1" parent="1">
          <mxGeometry x="590" y="370" width="120" height="40" as="geometry" />
        </mxCell>
      </root>
    </mxGraphModel>
  </diagram>
</mxfile>
